# xmcd
#
# Track frame offsets: 
#        150
#        17226
#        39354
#        56661
#        75196
#        93292
#        114744
#        135754
#        158254
#        179830
#        208230
#        230143
#        251576
#
# Disc length: 3607 seconds
#
# Revision: 0
# Processed by: cddbd v1.5.1PL2 Copyright (c) Steve Scherf et al.
# Submitted via: ExactAudioCopy v0.95a5
#
DISCID=a20e150d
DTITLE=田震 - 干杯，田震 1995－2001（CD1 of 2）
DYEAR=1900
DGENRE=
TTITLE0=野花
TTITLE1=自由自在
TTITLE2=执着（乡谣版）
TTITLE3=你是否和我一样
TTITLE4=怕黑的女人
TTITLE5=回了又去，去了再回
TTITLE6=随为我停留
TTITLE7=爱情守望者
TTITLE8=猜度
TTITLE9=沙粒，蚂蚁
TTITLE10=阳光下的田震
TTITLE11=执着（Bonus 原版）
TTITLE12=最后的时刻（Bonus）
EXTD=
EXTT0=
EXTT1=
EXTT2=
EXTT3=
EXTT4=
EXTT5=
EXTT6=
EXTT7=
EXTT8=
EXTT9=
EXTT10=
EXTT11=
EXTT12=
PLAYORDER=
